<svg width="24" height="24" viewBox="0 0 24 24" fill="none" xmlns="http://www.w3.org/2000/svg">
<path fill-rule="evenodd" clip-rule="evenodd" d="M3.99667 3.99707H14.0008C14.5533 3.99707 15.0013 4.44497 15.0013 4.99749V20.0037H3.99667C3.44415 20.0037 2.99625 19.5558 2.99625 19.0033V4.99749C2.99625 4.44497 3.44415 3.99707 3.99667 3.99707Z" stroke="#323232" stroke-width="1.5" stroke-linecap="round" stroke-linejoin="round"/>
<path fill-rule="evenodd" clip-rule="evenodd" d="M15.0013 7.99805H20.0033C20.5558 7.99805 21.0038 8.44595 21.0038 8.99846V19.0026C21.0038 19.5551 20.5558 20.003 20.0033 20.003H15.0013V7.99805Z" stroke="#323232" stroke-width="1.5" stroke-linecap="round" stroke-linejoin="round"/>
<path d="M6.99792 7.8732C6.92885 7.8732 6.87286 7.92919 6.87286 7.99826C6.87286 8.06732 6.92885 8.12331 6.99792 8.12331C7.06698 8.12331 7.12297 8.06732 7.12297 7.99826C7.12297 7.92919 7.06698 7.8732 6.99792 7.8732" stroke="#323232" stroke-width="1.5" stroke-linecap="round" stroke-linejoin="round"/>
<path d="M10.9996 7.8732C10.9305 7.8732 10.8745 7.92919 10.8745 7.99826C10.8745 8.06732 10.9305 8.12331 10.9996 8.12331C11.0686 8.12331 11.1246 8.06732 11.1246 7.99826C11.1246 7.92919 11.0686 7.8732 10.9996 7.8732" stroke="#323232" stroke-width="1.5" stroke-linecap="round" stroke-linejoin="round"/>
<path d="M6.99792 11.8752C6.92885 11.8752 6.87286 11.9311 6.87286 12.0002C6.87286 12.0693 6.92885 12.1253 6.99792 12.1253C7.06698 12.1253 7.12297 12.0693 7.12297 12.0002C7.12297 11.9311 7.06698 11.8752 6.99792 11.8752" stroke="#323232" stroke-width="1.5" stroke-linecap="round" stroke-linejoin="round"/>
<path d="M10.9996 11.8752C10.9305 11.8752 10.8745 11.9311 10.8745 12.0002C10.8745 12.0693 10.9305 12.1253 10.9996 12.1253C11.0686 12.1253 11.1246 12.0693 11.1246 12.0002C11.1246 11.9311 11.0686 11.8752 10.9996 11.8752" stroke="#323232" stroke-width="1.5" stroke-linecap="round" stroke-linejoin="round"/>
<path d="M6.99792 15.8771C6.92885 15.8771 6.87286 15.9331 6.87286 16.0022C6.87286 16.0712 6.92885 16.1272 6.99792 16.1272C7.06698 16.1272 7.12297 16.0712 7.12297 16.0022C7.12297 15.9331 7.06698 15.8771 6.99792 15.8771" stroke="#323232" stroke-width="1.5" stroke-linecap="round" stroke-linejoin="round"/>
<path d="M10.9996 15.8771C10.9305 15.8771 10.8745 15.9331 10.8745 16.0022C10.8745 16.0712 10.9305 16.1272 10.9996 16.1272C11.0686 16.1272 11.1246 16.0712 11.1246 16.0022C11.1246 15.9331 11.0686 15.8771 10.9996 15.8771" stroke="#323232" stroke-width="1.5" stroke-linecap="round" stroke-linejoin="round"/>
<path d="M18.0025 11.8752C17.9334 11.8752 17.8774 11.9311 17.8774 12.0002C17.8774 12.0693 17.9334 12.1253 18.0025 12.1253C18.0716 12.1253 18.1275 12.0693 18.1275 12.0002C18.1275 11.9311 18.0716 11.8752 18.0025 11.8752" stroke="#323232" stroke-width="1.5" stroke-linecap="round" stroke-linejoin="round"/>
<path d="M18.0025 15.8771C17.9334 15.8771 17.8774 15.9331 17.8774 16.0022C17.8774 16.0712 17.9334 16.1272 18.0025 16.1272C18.0716 16.1272 18.1275 16.0712 18.1275 16.0022C18.1275 15.9331 18.0716 15.8771 18.0025 15.8771" stroke="#323232" stroke-width="1.5" stroke-linecap="round" stroke-linejoin="round"/>
</svg>
